<?xml version="1.0" standalone="no"?>
<!DOCTYPE svg PUBLIC "-//W3C//DTD SVG 20010904//EN"
 "http://www.w3.org/TR/2001/REC-SVG-20010904/DTD/svg10.dtd">
<svg version="1.0" xmlns="http://www.w3.org/2000/svg"
 width="500.000000pt" height="500.000000pt" viewBox="0 0 500.000000 500.000000"
 preserveAspectRatio="xMidYMid meet">
<metadata>
Created by potrace 1.11, written by Peter Selinger 2001-2013
</metadata>
<g transform="translate(0.000000,500.000000) scale(0.100000,-0.100000)"
fill="#000000" stroke="none">
<path d="M0 2500 l0 -2500 2500 0 2500 0 0 1068 c0 817 -3 1071 -12 1080 -9 9
-9 12 0 12 8 0 12 19 12 55 l0 54 -269 268 c-253 251 -307 303 -314 303 -4 0
-337 332 -337 336 0 7 -63 64 -71 64 -5 0 -9 4 -9 9 0 12 -59 71 -71 71 -5 0
-9 4 -9 9 0 12 -59 71 -71 71 -5 0 -9 4 -9 9 0 12 -59 71 -71 71 -5 0 -9 4 -9
9 0 12 -59 71 -71 71 -5 0 -9 4 -9 9 0 12 -59 71 -71 71 -5 0 -9 4 -9 9 0 12
-59 71 -71 71 -5 0 -9 4 -9 9 0 12 -59 71 -71 71 -5 0 -9 4 -9 9 0 12 -59 71
-71 71 -5 0 -9 4 -9 9 0 12 -59 71 -71 71 -5 0 -9 7 -9 15 0 8 -5 15 -11 15
-6 0 -238 227 -516 505 l-506 505 -1123 0 -1124 0 0 -2500z m2194 2421 c-7 -9
-34 10 -34 24 0 13 3 12 18 -2 10 -10 17 -20 16 -22z m87 -79 c-6 -2 -18 3
-26 11 -24 24 -18 29 11 10 15 -9 22 -19 15 -21z m77 -80 c-10 -5 -38 23 -38
37 0 6 10 0 23 -12 12 -12 19 -23 15 -25z m80 -80 c-10 -5 -38 23 -38 37 0 6
10 0 23 -12 12 -12 19 -23 15 -25z m80 -80 c-10 -5 -38 23 -38 37 0 6 10 0 23
-12 12 -12 19 -23 15 -25z m80 -80 c-10 -5 -38 23 -38 37 0 6 10 0 23 -12 12
-12 19 -23 15 -25z m80 -80 c-10 -5 -38 23 -38 37 0 6 10 0 23 -12 12 -12 19
-23 15 -25z m80 -80 c-10 -5 -38 23 -38 37 0 6 10 0 23 -12 12 -12 19 -23 15
-25z m80 -80 c-10 -5 -38 23 -38 37 0 6 10 0 23 -12 12 -12 19 -23 15 -25z
m80 -80 c-10 -5 -38 23 -38 37 0 6 10 0 23 -12 12 -12 19 -23 15 -25z m80 -80
c-10 -5 -38 23 -38 37 0 6 10 0 23 -12 12 -12 19 -23 15 -25z m80 -80 c-10 -5
-38 23 -38 37 0 6 10 0 23 -12 12 -12 19 -23 15 -25z m80 -80 c-10 -5 -38 23
-38 37 0 6 10 0 23 -12 12 -12 19 -23 15 -25z m183 -156 c7 4 9 3 6 -4 -4 -5
-13 -9 -21 -8 -16 2 -126 111 -126 124 0 6 29 -19 65 -55 39 -39 69 -62 76
-57z m57 -84 c-10 -5 -38 23 -38 37 0 6 10 0 23 -12 12 -12 19 -23 15 -25z
m80 -62 c7 -11 10 -20 7 -20 -6 0 -45 38 -45 45 0 10 26 -7 38 -25z m83 -81
c5 -11 7 -19 3 -19 -11 0 -44 32 -44 41 0 14 30 -2 41 -22z m80 -80 c5 -11 7
-19 3 -19 -11 0 -44 32 -44 41 0 14 30 -2 41 -22z m80 -80 c5 -11 7 -19 3 -19
-11 0 -44 32 -44 41 0 14 30 -2 41 -22z m80 -80 c5 -11 7 -19 3 -19 -11 0 -44
32 -44 41 0 14 30 -2 41 -22z m80 -80 c5 -11 7 -19 3 -19 -11 0 -44 32 -44 41
0 14 30 -2 41 -22z m80 -80 c5 -11 7 -19 3 -19 -11 0 -44 32 -44 41 0 14 30
-2 41 -22z m-2704 -13 l28 -24 5 -487 5 -486 119 84 120 84 149 -106 c82 -58
213 -151 291 -206 79 -55 156 -110 172 -122 l29 -22 -92 -1 -93 0 0 -255 0
-255 -743 0 c-825 0 -777 -4 -797 68 -6 24 -10 321 -10 850 0 863 0 864 47
891 12 7 141 10 380 11 l362 0 28 -24z m2784 -67 c5 -11 7 -19 3 -19 -11 0
-44 32 -44 41 0 14 30 -2 41 -22z m80 -80 c5 -11 7 -19 3 -19 -11 0 -44 32
-44 41 0 14 30 -2 41 -22z m-864 -22 l28 -27 3 -300 3 -300 620 0 620 0 24
-25 25 -24 0 -451 0 -451 -25 -24 -24 -25 -1005 0 c-693 0 -1012 3 -1029 11
-53 24 -51 2 -53 739 -1 377 1 722 4 768 8 130 1 126 234 132 106 3 273 5 370
5 l178 0 27 -28z m944 -58 c5 -11 7 -19 3 -19 -11 0 -44 32 -44 41 0 14 30 -2
41 -22z m80 -80 c5 -11 7 -19 3 -19 -11 0 -44 32 -44 41 0 14 30 -2 41 -22z
m80 -80 c5 -11 7 -19 3 -19 -11 0 -44 32 -44 41 0 14 30 -2 41 -22z m79 -80
c17 -30 11 -34 -15 -9 -14 13 -25 27 -25 31 0 14 30 -2 40 -22z m71 -70 c11
-11 18 -23 15 -27 -4 -3 -19 6 -34 21 -14 15 -21 27 -14 27 6 0 21 -9 33 -21z
m164 -150 c12 -19 -5 -23 -22 -6 -16 16 -16 17 -1 17 9 0 20 -5 23 -11z m52
-61 c-3 -8 -6 -5 -6 6 -1 11 2 17 5 13 3 -3 4 -12 1 -19z m80 -73 c1 -15 0
-15 -3 -3 -3 9 -13 19 -22 22 -12 3 -12 4 3 3 12 -1 21 -10 22 -22z m80 -80
c1 -15 0 -15 -3 -3 -3 9 -13 19 -22 22 -12 3 -12 4 3 3 12 -1 21 -10 22 -22z
m76 -62 c-7 -2 -19 -2 -25 0 -7 3 -2 5 12 5 14 0 19 -2 13 -5z"/>
<path d="M505 3128 c-3 -7 -4 -393 -3 -858 l3 -845 288 -3 287 -2 0 229 0 230
-92 3 -93 3 170 121 170 120 3 481 c1 298 -2 491 -8 507 l-10 26 -355 0 c-275
0 -357 -3 -360 -12z"/>
<path d="M1408 2187 l-117 -82 -3 -340 c-2 -187 -3 -341 -3 -341 0 -1 147 -4
328 -6 l327 -4 0 257 0 258 37 3 37 3 -94 68 c-191 137 -380 267 -387 267 -4
0 -61 -38 -125 -83z"/>
<path d="M1136 1995 l-89 -65 41 0 42 0 0 -255 0 -255 45 0 c34 0 47 5 55 19
12 23 14 621 3 621 -5 -1 -48 -30 -97 -65z"/>
<path d="M2502 2953 c-5 -10 -8 -355 -8 -766 1 -734 2 -749 21 -764 17 -13 47
-14 190 -9 94 3 226 6 295 6 l125 0 -3 446 -2 445 29 30 c17 17 40 29 55 29
l26 0 0 288 c0 211 -3 291 -12 300 -9 9 -103 12 -360 12 -321 0 -348 -1 -356
-17z"/>
<path d="M3180 2301 c-6 -13 -10 -169 -10 -439 0 -359 2 -421 15 -432 8 -7 22
-10 30 -6 13 5 15 62 15 451 0 436 0 445 -20 445 -10 0 -24 -9 -30 -19z"/>
<path d="M3290 1886 c0 -239 -3 -441 -6 -450 -6 -15 52 -16 608 -16 464 0 617
3 626 12 9 9 12 120 12 440 0 412 -1 428 -19 438 -13 6 -225 10 -620 10 l-601
0 0 -434z"/>
<path d="M4100 3202 c0 -12 19 -26 26 -19 2 2 -2 10 -11 17 -9 8 -15 8 -15 2z"/>
<path d="M4190 3116 c0 -9 5 -16 10 -16 6 0 10 4 10 9 0 6 -4 13 -10 16 -5 3
-10 -1 -10 -9z"/>
<path d="M4532 2754 c9 -3 19 -13 22 -22 3 -12 4 -12 3 3 -1 12 -10 21 -22 22
-15 1 -15 0 -3 -3z"/>
<path d="M4612 2674 c9 -3 19 -13 22 -22 3 -12 4 -12 3 3 -1 12 -10 21 -22 22
-15 1 -15 0 -3 -3z"/>
<path d="M4692 2594 c9 -3 19 -13 22 -22 3 -12 4 -12 3 3 -1 12 -10 21 -22 22
-15 1 -15 0 -3 -3z"/>
<path d="M4782 2506 c7 -8 15 -12 17 -11 5 6 -10 25 -20 25 -5 0 -4 -6 3 -14z"/>
</g>
</svg>
